<svg xmlns="http://www.w3.org/2000/svg" xmlns:xlink="http://www.w3.org/1999/xlink" version="1.1" x="0px" y="0px" viewBox="0 0 100 125" enable-background="new 0 0 100 100" xml:space="preserve"><path d="M31.035,69.232L31.1,69.32l0.103,0.029c0.019,0.006,1.712,0.514,2.487,2.242h-4.27c-0.419-0.4-2.205-2.145-2.916-3.48  c-0.355-0.666-0.301-2.172,0.144-4.246c0.26-0.104,0.536-0.207,0.825-0.316c1.019-0.381,2.189-0.824,3.271-1.461  C30.32,63.857,29.703,67.408,31.035,69.232z"/><path d="M68.562,66.264l-0.038,0.191c-0.427,2.184-0.864,4.436,0.478,6.414c-1.401,0.02-3.982-0.258-4.289-2.482  c0.666-2.162-0.007-3.904-0.785-5.92c-0.312-0.809-0.632-1.648-0.887-2.568c1.22-0.59,2.879-1.143,4.615-1.719  c0.021-0.006,0.04-0.014,0.059-0.02C69.019,62.039,69.006,63.965,68.562,66.264z"/><path d="M94.534,49.316c-0.27,0.365-0.546,0.55-0.821,0.55c-0.402,0-0.723-0.386-0.726-0.388l-0.195-0.244l-0.245,0.193  c-3.459,2.737-11.231,3.116-11.254,3.122c0,0-0.077-0.012-0.224-0.012c-0.608,0-2.775,0.217-5.197,3.004  c-1.532,1.764-5.188,2.973-8.414,4.041c-2.508,0.83-4.875,1.613-6.078,2.582c-2.801,2.258-2.416,6.998-2.397,7.199l0.009,0.104  l0.067,0.076c0.875,0.998,1.407,2.332,1.647,3.045c-1.615-0.32-3.111-0.391-4.122-0.391c-0.629,0-1.12,0.027-1.422,0.049  c-0.035-1.445,0.335-2.533,0.339-2.545l0.025-0.074l-0.013-0.076c-0.259-1.768-0.175-2.857,0.497-6.48  c0.126-0.674,0.002-1.242-0.369-1.688c-0.651-0.783-1.994-1.148-4.228-1.148c-1.802,0-3.905,0.244-5.762,0.457  c-0.627,0.072-1.23,0.143-1.787,0.199c-0.267,0.025-0.545,0.039-0.824,0.039c-1.689,0-3.395-0.492-4.9-0.928  c-1.314-0.381-2.556-0.74-3.634-0.74c-0.993,0-1.765,0.309-2.356,0.939c-1.324,1.418-3.307,2.16-4.898,2.758  c-1.14,0.428-2.039,0.766-2.525,1.252c-1.221,1.221-2.523,4.406-0.989,5.949c0.556,0.561,1.169,1.971,1.439,2.639  c-0.409,0.055-0.84,0.082-1.287,0.082c-1.63,0-3.087-0.367-3.642-0.527l0.258-2.646l-0.055-0.092  c-1.026-1.662-0.258-4.754,0.586-6.32c0.966-1.797-0.242-3.557-1.521-5.418l-0.07-0.104c-1.789-2.607-2.824-3.672-2.867-3.717  l-0.211-0.215l-0.224,0.201c-3.995,3.561-8.143,4.824-10.479,4.824c-0.566,0-0.865-0.084-0.988-0.141  c0.131-0.117,0.521-0.342,1.421-0.576c5.315-1.383,8.71-7.398,8.853-7.655l0.057-0.102l-0.023-0.114  c-2.049-9.929,1.879-18.601,6.833-20.471c4.195-1.583,13.058-2.69,21.551-2.69c2.794,0,5.487,0.117,8.005,0.348  c11.268,1.034,22.272,4.67,22.384,4.707l0.207,0.07l0.138-0.171c2.872-3.578,7.903-4.676,9.202-4.906  c0.146,1.698-0.708,3.42-0.718,3.438l-0.238,0.474l0.529-0.017c0.971-0.031,3.06-0.506,3.982-0.726  c-0.48,2.745-2.716,4.676-2.74,4.697l-0.21,0.179l0.149,0.231c2.876,4.453,8.462,8.099,8.698,8.251l0.18,0.116l0.174-0.124  c0.1-0.07,0.236-0.107,0.408-0.107c0.381,0,0.77,0.175,0.779,0.179c0.506,0.218,0.755,0.79,0.874,1.231  C95.562,46.447,95.158,48.475,94.534,49.316z"/><text x="0" y="115" fill="#000000" font-size="5px" font-weight="bold" font-family="'Helvetica Neue', Helvetica, Arial-Unicode, Arial, Sans-serif">Created by Bakunetsu Kaito</text><text x="0" y="120" fill="#000000" font-size="5px" font-weight="bold" font-family="'Helvetica Neue', Helvetica, Arial-Unicode, Arial, Sans-serif">from the Noun Project</text></svg>