<svg xmlns="http://www.w3.org/2000/svg" xmlns:xlink="http://www.w3.org/1999/xlink" version="1.1" x="0px" y="0px" viewBox="0 0 595.28 1052.3625" enable-background="new 0 0 595.28 841.89" xml:space="preserve"><path fill-rule="evenodd" clip-rule="evenodd" fill="#000000" d="M139.394,463.497c-10.347,0.854-21.095,0.067-32.11-2.501  c-1.947-0.453-4.076-1.055-6.357-1.785c-27.108-8.709-44.624-30.005-53.262-57.38v-0.062c-7.999-25.385-8.199-56.207-1.146-86.493  c1.212-5.183,2.711-10.566,4.505-16.127c10.519-32.764,29.208-57.123,50.532-72.29c16.685-11.865,35.069-18.188,52.747-18.68  c42.285-1.68,208.705-21.124,271.521,14.203c74.281,41.77,86.385,225.128-110.952,229.036  C231.151,453.074,151.02,468.165,139.394,463.497L139.394,463.497z M221.845,233.53c8.228,9.035,14.28,17.788,15.673,30.334  c0,0,148.637,0,167.861,2.024c19.205,2.023,27.299,3.03,27.299,3.03s-3.531-21.739-48.537-31.346  C339.136,227.966,221.845,233.53,221.845,233.53L221.845,233.53z M504.324,338.594c8.477,4.572,20.865,10.471,30.621,11.951  c16.494,2.501-10.146-23.242-3.083-31.847s29.409-17.244,19.481-24.307c-9.927-7.054-26.631-12.59-23.1-22.713  c3.514-10.118,14.107-24.292,6.014-27.313c-5.518-2.057-22.278,17.525-32.396,30.201c-0.295-2.295-0.62-4.601-0.954-6.92  c-0.61-4.176-4.486-7.063-8.667-6.452c-4.172,0.611-7.054,4.486-6.453,8.657c2.244,15.229,3.646,29.485,3.99,42.896  c0.344,13.392-0.344,26.097-2.291,38.271c-0.648,4.157,2.177,8.061,6.338,8.719c4.143,0.659,8.057-2.176,8.715-6.328  C503.313,348.545,503.904,343.605,504.324,338.594L504.324,338.594z M191.176,305.825c-4.849-1.561-11.464,2.019-14.022,9.965  c-2.548,7.956-0.869,16.723,5.804,18.279c6.681,1.556,12.409-2.854,14.967-10.805C200.473,315.313,196.016,307.381,191.176,305.825  L191.176,305.825z M183.588,353.856c-4.849-1.556-11.454,2.019-14.012,9.97s-0.878,16.718,5.803,18.279  c6.682,1.556,12.399-2.858,14.948-10.81C192.885,363.345,188.437,355.413,183.588,353.856L183.588,353.856z M148.709,398.352  c-4.849-1.561-11.473,2.019-14.021,9.97c-2.549,7.951-0.869,16.719,5.803,18.274c6.682,1.561,12.399-2.85,14.958-10.805  C158.007,407.839,153.559,399.907,148.709,398.352L148.709,398.352z M118.375,351.327c-4.849-1.556-11.473,2.023-14.021,9.975  c-2.549,7.951-0.869,16.719,5.803,18.274c6.682,1.561,12.399-2.859,14.958-10.805C127.672,360.82,123.224,352.888,118.375,351.327  L118.375,351.327z M116.848,290.653c-4.849-1.556-11.455,2.023-14.013,9.975c-2.558,7.946-0.868,16.719,5.804,18.274  c6.682,1.556,12.399-2.854,14.948-10.805C126.145,300.146,121.697,292.214,116.848,290.653L116.848,290.653z M149.512,318.769  c-5.918-1.904-13.984,2.458-17.105,12.156c-3.112,9.698-1.06,20.394,7.083,22.293c8.151,1.899,15.119-3.484,18.231-13.182  C160.842,330.337,155.42,320.664,149.512,318.769L149.512,318.769z M210.467,286.091c-8.905-23.056-24.502-40.29-40.452-45.416  c-15.253-4.901-33.905-0.979-50.78,11.025c-16.36,11.64-30.831,30.726-39.192,56.765c-1.394,4.329-2.654,8.925-3.78,13.74  c-5.851,25.104-5.832,50.212,0.535,70.429l0.01-0.005c5.755,18.231,16.79,32.211,33.437,37.561c1.069,0.344,2.386,0.697,3.971,1.064  c21.171,4.939,40.815,0.544,57.214-11.307c17.792-12.857,32.177-34.458,41.235-62.63  C220.757,332.104,218.514,306.899,210.467,286.091z"/><text x="0" y="856.89" fill="#000000" font-size="5px" font-weight="bold" font-family="'Helvetica Neue', Helvetica, Arial-Unicode, Arial, Sans-serif">Created by Ersin</text><text x="0" y="861.89" fill="#000000" font-size="5px" font-weight="bold" font-family="'Helvetica Neue', Helvetica, Arial-Unicode, Arial, Sans-serif">from the Noun Project</text></svg>